# xmcd
#
# Track frame offsets:
#	150
#	14178
#	28729
#	46188
#	61212
#	76725
#	95154
#	110072
#	135321
#	149048
#	165674
#
# Disc length: 2437 seconds
#
# Revision: 0
# Processed by: cddbd v1.5.2PL0 Copyright (c) Steve Scherf et al.
# Submitted via: audiograbber 1.83.01
#
DISCID=9809830b
DTITLE=Rodney Crowell - TEXAS
DYEAR=2019
DGENRE=Country
TTITLE0=Flatland Hillbillies
TTITLE1=Caw Caw Blues
TTITLE2=56 Fury
TTITLE3=Deep in the Heart of Uncertain Texas
TTITLE4=You're Only Happy When You're Miserable
TTITLE5=I'll Show Me
TTITLE6=What You Gonna Do Now
TTITLE7=The Border
TTITLE8=Treetop Slim and Billy Lowgrass
TTITLE9=Brown and Root, Brown and Root
TTITLE10=Texas Drought, Pt. 1
EXTD=
EXTT0=
EXTT1=
EXTT2=
EXTT3=
EXTT4=
EXTT5=
EXTT6=
EXTT7=
EXTT8=
EXTT9=
EXTT10=
PLAYORDER=
